<?xml version="1.0" encoding="utf-8"?>
<!-- Generator: Adobe Illustrator 21.0.0, SVG Export Plug-In . SVG Version: 6.00 Build 0)  -->
<svg version="1.1" xmlns="http://www.w3.org/2000/svg" xmlns:xlink="http://www.w3.org/1999/xlink" x="0px" y="0px"
	 viewBox="0 0 1913.7 937.3" style="enable-background:new 0 0 1913.7 937.3;" xml:space="preserve">
<style type="text/css">
	.st0{fill:#F5E245;}
	.st1{fill:#552D8D;}
	.st2{fill:#42BFE9;}
	.st3{fill:#343535;}
	.st4{fill:#E8403D;}
	.st5{fill:#EB5E29;}
	.st6{font-family:'AdobeMingStd-Light-B5pc-H';}
	.st7{font-size:12px;}
	.st8{font-family:'OpenSans-Semibold';}
	.st9{font-size:34.8457px;}
</style>
<g id="座位">
	<g id="A區">
		<rect id="_x31_-6" x="665.5" y="115.7" class="st0" width="74.5" height="74.5"/>
		<rect id="_x31_-4" x="751.8" y="115.7" class="st0" width="74.5" height="74.5"/>
		<rect id="_x31_-2" x="838.1" y="115.7" class="st0" width="74.5" height="74.5"/>
		<rect id="_x31_-1" x="924.4" y="115.7" class="st0" width="74.5" height="74.5"/>
		<rect id="_x31_-3" x="1010.6" y="115.7" class="st0" width="74.5" height="74.5"/>
		<rect id="_x31_-5" x="1096.9" y="115.7" class="st0" width="74.5" height="74.5"/>
		<rect id="_x31_-7" x="1183.2" y="115.7" class="st0" width="74.5" height="74.5"/>
		<rect id="_x33_-6" x="665.5" y="311.8" class="st0" width="74.5" height="74.5"/>
		<rect id="_x33_-4" x="751.8" y="311.8" class="st0" width="74.5" height="74.5"/>
		<rect id="_x33_-2" x="838.1" y="311.8" class="st0" width="74.5" height="74.5"/>
		<rect id="_x33_-1_1_" x="924.4" y="311.8" class="st0" width="74.5" height="74.5"/>
		<rect id="_x33_-3" x="1010.6" y="311.8" class="st0" width="74.5" height="74.5"/>
		<rect id="_x33_-5" x="1096.9" y="311.8" class="st0" width="74.5" height="74.5"/>
		<rect id="_x33_-7" x="1183.2" y="311.8" class="st0" width="74.5" height="74.5"/>
		<rect id="_x32_-8" x="628.3" y="213.7" class="st0" width="74.5" height="74.5"/>
		<rect id="_x32_-6" x="714.6" y="213.7" class="st0" width="74.5" height="74.5"/>
		<rect id="_x32_-4" x="800.8" y="213.7" class="st0" width="74.5" height="74.5"/>
		<rect id="_x32_-2" x="887.1" y="213.7" class="st0" width="74.5" height="74.5"/>
		<rect id="_x32_-1" x="973.4" y="213.7" class="st0" width="74.5" height="74.5"/>
		<rect id="_x32_-3" x="1059.7" y="213.7" class="st0" width="74.5" height="74.5"/>
		<rect id="_x32_-5" x="1145.9" y="213.7" class="st0" width="74.5" height="74.5"/>
		<g>
			<rect id="_x32_-7" x="1232.2" y="213.7" class="st0" width="74.5" height="74.5"/>
		</g>
	</g>
	<g id="B-1區">
		<rect id="_x31_-13" x="1520.5" y="115.7" class="st1" width="74.5" height="74.5"/>
		<rect id="_x31_-15" x="1606.7" y="115.7" class="st1" width="74.5" height="74.5"/>
		<rect id="_x33_-9" x="1347.9" y="311.8" class="st1" width="74.5" height="74.5"/>
		<rect id="_x33_-11" x="1434.2" y="311.8" class="st1" width="74.5" height="74.5"/>
		<rect id="_x33_-13" x="1520.5" y="311.8" class="st1" width="74.5" height="74.5"/>
		<rect id="_x33_-15" x="1606.7" y="311.8" class="st1" width="74.5" height="74.5"/>
		<rect id="_x33_-17" x="1693" y="311.8" class="st1" width="74.5" height="74.5"/>
		<rect id="_x32_-9" x="1391" y="213.7" class="st1" width="74.5" height="74.5"/>
		<rect id="_x32_-11" x="1477.3" y="213.7" class="st1" width="74.5" height="74.5"/>
		<rect id="_x32_-13" x="1563.6" y="213.7" class="st1" width="74.5" height="74.5"/>
		<rect id="_x32_-15" x="1649.9" y="213.7" class="st1" width="74.5" height="74.5"/>
	</g>
	<g id="D-1區">
		<rect id="_x34_-9" x="1347.9" y="484.3" class="st2" width="74.5" height="74.5"/>
		<rect id="_x34_-11" x="1434.2" y="484.3" class="st2" width="74.5" height="74.5"/>
		<rect id="_x34_-13" x="1520.5" y="484.3" class="st2" width="74.5" height="74.5"/>
		<rect id="_x34_-15" x="1606.7" y="484.3" class="st2" width="74.5" height="74.5"/>
		<rect id="_x36_-9" x="1347.9" y="684.3" class="st2" width="74.5" height="74.5"/>
		<rect id="_x36_-11" x="1434.2" y="684.3" class="st2" width="74.5" height="74.5"/>
		<rect id="_x36_-13" x="1520.5" y="684.3" class="st2" width="74.5" height="74.5"/>
		<rect id="_x36_-15" x="1606.7" y="684.3" class="st2" width="74.5" height="74.5"/>
		<rect id="_x36_-17" x="1693" y="684.3" class="st2" width="74.5" height="74.5"/>
		<rect id="_x37_-9" x="1391" y="784.3" class="st2" width="74.5" height="74.5"/>
		<rect id="_x37_-11" x="1477.3" y="784.3" class="st2" width="74.5" height="74.5"/>
		<rect id="_x37_-13_x28_工作席_x29_" x="1563.6" y="784.3" class="st3" width="74.5" height="74.5"/>
		<rect id="_x37_-15_x28_工作席_x29_" x="1649.9" y="784.3" class="st3" width="74.5" height="74.5"/>
		<rect id="_x37_-17_x28_工作席_x29_" x="1736.1" y="784.3" class="st3" width="74.5" height="74.5"/>
		<rect id="_x35_-9" x="1391" y="584.3" class="st2" width="74.5" height="74.5"/>
		<rect id="_x35_-11" x="1477.3" y="584.3" class="st2" width="74.5" height="74.5"/>
		<rect id="_x35_-13" x="1563.6" y="584.3" class="st2" width="74.5" height="74.5"/>
		<rect id="_x35_-15" x="1649.9" y="584.3" class="st2" width="74.5" height="74.5"/>
	</g>
	<g id="身心障礙席">
		<rect id="_x31_-9" x="1347.9" y="115.7" class="st4" width="74.5" height="74.5"/>
		<rect id="_x31_-11" x="1434.2" y="115.7" class="st4" width="74.5" height="74.5"/>
		
			<rect id="_x31_-8" x="502.8" y="115.7" transform="matrix(-1 -4.489532e-11 4.489532e-11 -1 1080.1177 305.8824)" class="st4" width="74.5" height="74.5"/>
		
			<rect id="_x31_-10" x="416.5" y="115.7" transform="matrix(-1 -4.489532e-11 4.489532e-11 -1 907.5686 305.8824)" class="st4" width="74.5" height="74.5"/>
	</g>
	<g id="B-2區">
		
			<rect id="_x31_-12" x="330.3" y="115.7" transform="matrix(-1 -4.489532e-11 4.489532e-11 -1 735.0196 305.8824)" class="st1" width="74.5" height="74.5"/>
		
			<rect id="_x31_-14" x="244" y="115.7" transform="matrix(-1 -4.489532e-11 4.489532e-11 -1 562.4706 305.8824)" class="st1" width="74.5" height="74.5"/>
		
			<rect id="_x33_-8" x="502.8" y="311.8" transform="matrix(-1 -4.489532e-11 4.489532e-11 -1 1080.1177 698.0392)" class="st1" width="74.5" height="74.5"/>
		
			<rect id="_x33_-10" x="416.5" y="311.8" transform="matrix(-1 -4.488289e-11 4.488289e-11 -1 907.5686 698.0392)" class="st1" width="74.5" height="74.5"/>
		
			<rect id="_x33_-12" x="330.3" y="311.8" transform="matrix(-1 -4.489532e-11 4.489532e-11 -1 735.0196 698.0392)" class="st1" width="74.5" height="74.5"/>
		
			<rect id="_x33_-14" x="244" y="311.8" transform="matrix(-1 -4.489532e-11 4.489532e-11 -1 562.4706 698.0392)" class="st1" width="74.5" height="74.5"/>
		
			<rect id="_x33_-16" x="157.7" y="311.8" transform="matrix(-1 -4.489532e-11 4.489532e-11 -1 389.9216 698.0392)" class="st1" width="74.5" height="74.5"/>
		
			<rect id="_x32_-10" x="459.7" y="213.7" transform="matrix(-1 -4.488289e-11 4.488289e-11 -1 993.8431 501.9608)" class="st1" width="74.5" height="74.5"/>
		
			<rect id="_x32_-12" x="373.4" y="213.7" transform="matrix(-1 -4.489532e-11 4.489532e-11 -1 821.2941 501.9608)" class="st1" width="74.5" height="74.5"/>
		
			<rect id="_x32_-14" x="287.1" y="213.7" transform="matrix(-1 -4.489532e-11 4.489532e-11 -1 648.7451 501.9608)" class="st1" width="74.5" height="74.5"/>
		
			<rect id="_x32_-16" x="200.8" y="213.7" transform="matrix(-1 -4.490731e-11 4.490731e-11 -1 476.1961 501.9608)" class="st1" width="74.5" height="74.5"/>
	</g>
	<g id="D-2區">
		
			<rect id="_x34_-8" x="502.8" y="484.3" transform="matrix(-1 -4.489532e-11 4.489532e-11 -1 1080.1177 1043.1372)" class="st2" width="74.5" height="74.5"/>
		
			<rect id="_x34_-10" x="416.5" y="484.3" transform="matrix(-1 -4.489532e-11 4.489532e-11 -1 907.5686 1043.1372)" class="st2" width="74.5" height="74.5"/>
		
			<rect id="_x34_-12" x="330.3" y="484.3" transform="matrix(-1 -4.488289e-11 4.488289e-11 -1 735.0196 1043.1372)" class="st2" width="74.5" height="74.5"/>
		
			<rect id="_x34_-14" x="244" y="484.3" transform="matrix(-1 -4.489532e-11 4.489532e-11 -1 562.4706 1043.1372)" class="st2" width="74.5" height="74.5"/>
		
			<rect id="_x36_-8" x="502.8" y="684.3" transform="matrix(-1 -4.482205e-11 4.482205e-11 -1 1080.1177 1443.1372)" class="st2" width="74.5" height="74.5"/>
		
			<rect id="_x36_-10" x="416.5" y="684.3" transform="matrix(-1 -4.495616e-11 4.495616e-11 -1 907.5686 1443.1372)" class="st2" width="74.5" height="74.5"/>
		
			<rect id="_x36_-12" x="330.3" y="684.3" transform="matrix(-1 -4.483404e-11 4.483404e-11 -1 735.0196 1443.1372)" class="st2" width="74.5" height="74.5"/>
		
			<rect id="_x36_-14" x="244" y="684.3" transform="matrix(-1 -4.482205e-11 4.482205e-11 -1 562.4706 1443.1372)" class="st2" width="74.5" height="74.5"/>
		
			<rect id="_x36_-16" x="157.7" y="684.3" transform="matrix(-1 -4.496859e-11 4.496859e-11 -1 389.9216 1443.1372)" class="st2" width="74.5" height="74.5"/>
		
			<rect id="_x37_-10" x="459.7" y="784.3" transform="matrix(-1 -4.482205e-11 4.482205e-11 -1 993.8431 1643.1372)" class="st2" width="74.5" height="74.5"/>
		
			<rect id="_x37_-12" x="373.4" y="784.3" transform="matrix(-1 -4.482205e-11 4.482205e-11 -1 821.2941 1643.1372)" class="st2" width="74.5" height="74.5"/>
		
			<rect id="_x37_-14_x28_工作席_x29_" x="287.1" y="784.3" transform="matrix(-1 -4.496859e-11 4.496859e-11 -1 648.7451 1643.1372)" class="st3" width="74.5" height="74.5"/>
		
			<rect id="_x37_-16_x28_工作席_x29_" x="200.8" y="784.3" transform="matrix(-1 -4.482205e-11 4.482205e-11 -1 476.1961 1643.1372)" class="st3" width="74.5" height="74.5"/>
		
			<rect id="_x37_-18_x28_工作席_x29_" x="114.6" y="784.3" transform="matrix(-1 -4.482205e-11 4.482205e-11 -1 303.6471 1643.1372)" class="st3" width="74.5" height="74.5"/>
		
			<rect id="_x35_-10" x="459.7" y="584.3" transform="matrix(-1 -4.482205e-11 4.482205e-11 -1 993.8431 1243.1372)" class="st2" width="74.5" height="74.5"/>
		
			<rect id="_x35_-12" x="373.4" y="584.3" transform="matrix(-1 -4.482205e-11 4.482205e-11 -1 821.2941 1243.1372)" class="st2" width="74.5" height="74.5"/>
		
			<rect id="_x35_-14" x="287.1" y="584.3" transform="matrix(-1 -4.495616e-11 4.495616e-11 -1 648.7451 1243.1372)" class="st2" width="74.5" height="74.5"/>
		
			<rect id="_x35_-16" x="200.8" y="584.3" transform="matrix(-1 -4.483404e-11 4.483404e-11 -1 476.1961 1243.1372)" class="st2" width="74.5" height="74.5"/>
	</g>
	<g id="C區">
		<rect id="_x34_-6" x="665.5" y="484.3" class="st5" width="74.5" height="74.5"/>
		<rect id="_x34_-4" x="751.8" y="484.3" class="st5" width="74.5" height="74.5"/>
		<rect id="_x34_-2" x="838.1" y="484.3" class="st5" width="74.5" height="74.5"/>
		<rect id="_x34_-1" x="924.4" y="484.3" class="st5" width="74.5" height="74.5"/>
		<rect id="_x34_-3" x="1010.6" y="484.3" class="st5" width="74.5" height="74.5"/>
		<rect id="_x34_-5_x28_工作席_x29_" x="1096.9" y="484.3" class="st3" width="74.5" height="74.5"/>
		<rect id="_x34_-7_x28_工作席_x29_" x="1183.2" y="484.3" class="st3" width="74.5" height="74.5"/>
		<rect id="_x36_-6" x="665.5" y="684.3" class="st5" width="74.5" height="74.5"/>
		<rect id="_x36_-4" x="751.8" y="684.3" class="st5" width="74.5" height="74.5"/>
		<rect id="_x36_-2" x="838.1" y="684.3" class="st5" width="74.5" height="74.5"/>
		<rect id="_x36_-1" x="924.4" y="684.3" class="st5" width="74.5" height="74.5"/>
		<rect id="_x36_-3" x="1010.6" y="684.3" class="st5" width="74.5" height="74.5"/>
		<rect id="_x36_-5" x="1096.9" y="684.3" class="st5" width="74.5" height="74.5"/>
		<rect id="_x36_-7" x="1183.2" y="684.3" class="st5" width="74.5" height="74.5"/>
		<rect id="_x35_-8" x="628.3" y="584.3" class="st5" width="74.5" height="74.5"/>
		<rect id="_x35_-6" x="714.6" y="584.3" class="st5" width="74.5" height="74.5"/>
		<rect id="_x35_-4" x="800.8" y="584.3" class="st5" width="74.5" height="74.5"/>
		<rect id="_x35_-2" x="887.1" y="584.3" class="st5" width="74.5" height="74.5"/>
		<rect id="_x35_-1" x="973.4" y="584.3" class="st5" width="74.5" height="74.5"/>
		<rect id="_x35_-3" x="1059.7" y="584.3" class="st5" width="74.5" height="74.5"/>
		<rect id="_x35_-5" x="1145.9" y="584.3" class="st5" width="74.5" height="74.5"/>
		<rect id="_x35_-7" x="1232.2" y="584.3" class="st5" width="74.5" height="74.5"/>
		<rect id="_x37_-8" x="628.3" y="784.3" class="st5" width="74.5" height="74.5"/>
		<rect id="_x37_-6" x="714.6" y="784.3" class="st5" width="74.5" height="74.5"/>
		<rect id="_x37_-4" x="800.8" y="784.3" class="st5" width="74.5" height="74.5"/>
		<rect id="_x37_-2" x="887.1" y="784.3" class="st5" width="74.5" height="74.5"/>
		<rect id="_x37_-1" x="973.4" y="784.3" class="st5" width="74.5" height="74.5"/>
		<rect id="_x37_-3" x="1059.7" y="784.3" class="st5" width="74.5" height="74.5"/>
		<rect id="_x37_-5" x="1145.9" y="784.3" class="st5" width="74.5" height="74.5"/>
		<rect id="_x37_-7" x="1232.2" y="784.3" class="st5" width="74.5" height="74.5"/>
		<text transform="matrix(1 0 0 1 1135.8901 498.9698)" class="st6 st7">(工作席)</text>
	</g>
</g>
<g id="note">
	<text transform="matrix(1 0 0 1 55.4912 160.1011)"><tspan x="0" y="0" class="st8 st9">1</tspan><tspan x="0" y="99" class="st8 st9">2</tspan><tspan x="0" y="198" class="st8 st9">3</tspan></text>
	<text transform="matrix(1 0 0 1 55.4912 536.5717)"><tspan x="0" y="0" class="st8 st9">4</tspan><tspan x="0" y="99" class="st8 st9">5</tspan><tspan x="0" y="198" class="st8 st9">6</tspan><tspan x="0" y="297" class="st8 st9">7</tspan></text>
	<text transform="matrix(1 0 0 1 1855.4913 160.1011)"><tspan x="0" y="0" class="st8 st9">1</tspan><tspan x="0" y="99" class="st8 st9">2</tspan><tspan x="0" y="198" class="st8 st9">3</tspan></text>
	<text transform="matrix(1 0 0 1 1855.4913 536.5717)"><tspan x="0" y="0" class="st8 st9">4</tspan><tspan x="0" y="99" class="st8 st9">5</tspan><tspan x="0" y="198" class="st8 st9">6</tspan><tspan x="0" y="297" class="st8 st9">7</tspan></text>
</g>
</svg>
